<svg fill="none" viewBox="0 0 26 26" xmlns="http://www.w3.org/2000/svg">
<path d="m12.593 19.892c0.057 0 0.114-0.0143 0.171-0.0428s0.0997-0.057 0.1283-0.0855l7.012-7.0121c0.171-0.171 0.2958-0.3634 0.3741-0.5772 0.0784-0.2138 0.1176-0.4276 0.1176-0.6414 0-0.228-0.0392-0.4453-0.1176-0.652-0.0783-0.2066-0.2031-0.3884-0.3741-0.5451l-3.6343-3.6343c-0.1568-0.17102-0.3385-0.29573-0.5451-0.37412-0.2067-0.07839-0.424-0.11758-0.6521-0.11758-0.2137 0-0.4275 0.03919-0.6413 0.11758s-0.4062 0.2031-0.5772 0.37412l-0.2352 0.23516 1.582 1.6034c0.2138 0.19953 0.3706 0.42757 0.4703 0.68411 0.0998 0.25654 0.1497 0.52733 0.1497 0.8124 0 0.5986-0.2031 1.101-0.6093 1.5071-0.4062 0.4062-0.9086 0.6093-1.5072 0.6093-0.285 0-0.5594-0.0499-0.823-0.1496-0.2637-0.0998-0.4953-0.2494-0.6948-0.449l-1.6034-1.582-3.7412 3.7412c-0.04276 0.0428-0.07482 0.0891-0.0962 0.139s-0.03207 0.1033-0.03207 0.1603c0 0.114 0.04276 0.2174 0.12827 0.31 0.08551 0.0927 0.18528 0.139 0.2993 0.139 0.057 0 0.11401-0.0143 0.17102-0.0428s0.09977-0.057 0.12827-0.0855l2.9074-2.9074 1.1972 1.1971-2.886 2.9075c-0.04275 0.0427-0.07482 0.0891-0.0962 0.1389-0.02138 0.0499-0.03207 0.1034-0.03207 0.1604 0 0.114 0.04276 0.2138 0.12827 0.2993 0.08552 0.0855 0.18528 0.1282 0.2993 0.1282 0.05701 0 0.11402-0.0142 0.17102-0.0427 0.05701-0.0285 0.09977-0.057 0.12827-0.0855l2.9075-2.8861 1.1972 1.1972-2.8861 2.9074c-0.0428 0.0285-0.0748 0.0713-0.0962 0.1283s-0.0321 0.114-0.0321 0.171c0 0.1141 0.0428 0.2138 0.1283 0.2993s0.1853 0.1283 0.2993 0.1283c0.057 0 0.1105-0.0107 0.1603-0.0321 0.0499-0.0213 0.0962-0.0534 0.139-0.0962l2.9074-2.886 1.1972 1.1971-2.9074 2.9075c-0.0428 0.0427-0.0748 0.0891-0.0962 0.1389-0.0214 0.0499-0.0321 0.1034-0.0321 0.1604 0 0.114 0.0463 0.2138 0.139 0.2993 0.0926 0.0855 0.1959 0.1283 0.31 0.1283zm-0.0214 1.7102c-0.5274 0-0.9941-0.1746-1.4003-0.5238-0.4062-0.3491-0.6449-0.7874-0.7162-1.3147-0.48455-0.0713-0.89073-0.2708-1.2185-0.5986s-0.52733-0.734-0.5986-1.2186c-0.48457-0.0712-0.88719-0.2743-1.2079-0.6093-0.32067-0.3349-0.51664-0.7375-0.5879-1.2078-0.54158-0.0713-0.9834-0.3064-1.3254-0.7055s-0.51308-0.8694-0.51308-1.411c0-0.285 0.05344-0.5594 0.16034-0.823 0.10689-0.2637 0.2601-0.4953 0.45963-0.6948l4.9598-4.9384 2.8006 2.8005c0.0285 0.0428 0.0712 0.0749 0.1282 0.0962 0.057 0.0214 0.114 0.0321 0.171 0.0321 0.1283 0 0.2352-0.0392 0.3207-0.1176s0.1283-0.1817 0.1283-0.31c0-0.057-0.0107-0.11397-0.0321-0.17098s-0.0534-0.09976-0.0962-0.12827l-3.0571-3.0571c-0.1567-0.17102-0.3385-0.29573-0.5451-0.37412-0.2067-0.07839-0.42402-0.11758-0.65206-0.11758-0.21378 0-0.42756 0.03919-0.64134 0.11758-0.21379 0.07839-0.40619 0.2031-0.57722 0.37412l-3.0143 3.0357c-0.12827 0.12827-0.23516 0.27793-0.32068 0.44893-0.08551 0.171-0.14252 0.3421-0.17102 0.5131-0.02851 0.171-0.02851 0.3456 0 0.5238 0.0285 0.1781 0.08551 0.3456 0.17102 0.5024l-1.2399 1.2399c-0.24228-0.3278-0.42044-0.6877-0.53445-1.0796-0.11402-0.3919-0.15678-0.7874-0.12827-1.1865 0.0285-0.3991 0.12827-0.78744 0.29929-1.1651 0.17103-0.37768 0.40619-0.71617 0.70549-1.0155l3.0143-3.0143c0.34205-0.3278 0.7233-0.57721 1.1437-0.74824s0.85157-0.25654 1.2934-0.25654c0.44186 0 0.87296 0.08551 1.2934 0.25654 0.4205 0.17103 0.7946 0.42044 1.1224 0.74824l0.2352 0.23516 0.2351-0.23516c0.3421-0.3278 0.7233-0.57721 1.1437-0.74824 0.4205-0.17103 0.8516-0.25654 1.2934-0.25654 0.4419 0 0.873 0.08551 1.2934 0.25654 0.4205 0.17103 0.7946 0.42044 1.1224 0.74824l3.6129 3.6129c0.3278 0.32781 0.5772 0.70549 0.7482 1.1331 0.1711 0.4275 0.2566 0.8622 0.2566 1.304s-0.0855 0.873-0.2566 1.2934c-0.171 0.4205-0.4204 0.7946-0.7482 1.1224l-7.0121 6.9907c-0.1995 0.1995-0.4311 0.3563-0.6948 0.4703-0.2636 0.114-0.538 0.171-0.823 0.171z" fill="#fff"/>
</svg>
