<svg width="26" height="26" fill="none" viewBox="0 0 16 16" xmlns="http://www.w3.org/2000/svg">
<g clip-path="url(#a)" fill="#fff">
<path d="m3.724 5.1472h-3.212c-0.14256 0-0.25806 0.11556-0.25806 0.25806v10.319c0 0.1426 0.11551 0.2581 0.25806 0.2581h3.212c0.14255 0 0.25806-0.1155 0.25806-0.2581v-10.319c0-0.1425-0.11551-0.25806-0.25806-0.25806z"/>
<path d="m2.1195 0.017578c-1.1687 0-2.1195 0.94978-2.1195 2.1172 0 1.168 0.95081 2.1181 2.1195 2.1181 1.1678 0 2.1178-0.95019 2.1178-2.1181 5e-5 -1.1674-0.95004-2.1172-2.1178-2.1172z"/>
<path d="m11.895 4.8906c-1.29 0-2.2437 0.55459-2.8221 1.1847v-0.6702c0-0.1425-0.11551-0.25806-0.25806-0.25806h-3.0761c-0.14255 0-0.25806 0.11556-0.25806 0.25806v10.319c0 0.1426 0.11551 0.2581 0.25806 0.2581h3.205c0.14255 0 0.25806-0.1155 0.25806-0.2581v-5.1054c0-1.7204 0.46731-2.3907 1.6666-2.3907 1.3061 0 1.4099 1.0745 1.4099 2.4792v5.017c0 0.1425 0.1155 0.258 0.2581 0.258h3.2062c0.1425 0 0.258-0.1155 0.258-0.258v-5.6601c0-2.5582-0.4878-5.1734-4.1056-5.1734z"/>
</g>
<defs>
<clipPath id="a">
<rect width="16" height="16" fill="#fff"/>
</clipPath>
</defs>
</svg>
