<svg fill="none" viewBox="0 0 42 42" xmlns="http://www.w3.org/2000/svg">
<path d="m28 19.25c2.905 0 5.2325-2.345 5.2325-5.25s-2.3275-5.25-5.2325-5.25-5.25 2.345-5.25 5.25 2.345 5.25 5.25 5.25zm-14 0c2.905 0 5.2325-2.345 5.2325-5.25s-2.3275-5.25-5.2325-5.25-5.25 2.345-5.25 5.25 2.345 5.25 5.25 5.25zm0 3.5c-4.0775 0-12.25 2.0475-12.25 6.125v4.375h24.5v-4.375c0-4.0775-8.1725-6.125-12.25-6.125zm14 0c-0.5075 0-1.085 0.035-1.6975 0.0875 2.03 1.47 3.4475 3.4475 3.4475 6.0375v4.375h10.5v-4.375c0-4.0775-8.1725-6.125-12.25-6.125z" fill="#fff"/>
</svg>