<svg fill="none" viewBox="0 0 26 26" xmlns="http://www.w3.org/2000/svg">
<path d="m9.1707 5.35v0.93075c-0.867-0.408-1.785-0.6375-2.7158-0.6375-1.632 0-3.264 0.62475-4.5135 1.8615l2.703 2.703h1.7978l-0.1275 1.683c0.7905 0.7905 1.8105 1.173 2.8432 1.173h0.01275v2.4863h-2.55v3.1875c0 1.0582 0.85425 1.9125 1.9125 1.9125h9.5625c1.4025 0 2.55-1.1475 2.55-2.55v-12.75h-11.475zm-0.01275 6.4387c-0.54825 0-1.071-0.153-1.5172-0.459l0.19125-2.3842h-2.652l-1.3132-1.3132c0.77775-0.459 1.6702-0.70125 2.5882-0.70125 1.3642 0 2.6392 0.5355 3.6083 1.4918l1.7977 1.7978-0.765 0.765c-0.5227 0.51-1.2112 0.8032-1.938 0.8032zm10.213 6.3113c0 0.7012-0.5738 1.275-1.275 1.275-0.7013 0-1.275-0.5738-1.275-1.275v-2.55h-6.375v-2.7158c0.561-0.1912 1.0965-0.4972 1.5555-0.9435l0.765-0.765 3.1492 3.1493h0.9053v-0.9053l-5.865-5.8522c-0.153-0.16575-0.3315-0.2805-0.51-0.42075v-0.47175h8.925v11.475z" fill="#fff"/>
</svg>
