<svg width="406" height="200" viewBox="0 0 406 200" fill="none" xmlns="http://www.w3.org/2000/svg">
<path d="M233.364 92.5586C162.357 122.175 64.2457 119.389 0.810425 83.238L43.1268 57.4872C87.631 82.8494 157.506 83.7734 205.6 61.0022L205 59.7513C162.381 58.7195 120.456 48.9314 87.7837 30.312L130.1 4.56108C178.396 32.0841 256.515 30.8112 304.257 1.75854L233.364 92.5586Z" fill="#F35321"/>
<path d="M233.364 92.5586C162.357 122.175 64.2457 119.389 0.810425 83.238L43.1268 57.4872C87.631 82.8494 157.506 83.7734 205.6 61.0022L205 59.7513C162.381 58.7195 120.456 48.9314 87.7837 30.312L130.1 4.56108C178.396 32.0841 256.515 30.8112 304.257 1.75854L233.364 92.5586Z" fill="#F35321"/>
<path fill-rule="evenodd" clip-rule="evenodd" d="M202.238 195.379L404.719 44.1513L404.691 44.1386L314.92 3.70916L255.399 101.919L157.339 175.158L202.238 195.379Z" fill="#F35321"/>
</svg>
