<svg width="1440" height="479" viewBox="0 0 1440 479" fill="none" xmlns="http://www.w3.org/2000/svg">
<path fill-rule="evenodd" clip-rule="evenodd" d="M766.256 479H766.185H672.248H672.178V247.032H667.057C641.688 378.938 525.287 478.91 386 479H385.812H0V385H386V385.112C483.709 385.019 564.597 311.787 576.723 217.404L573.717 215.681C523.401 259.484 457.612 286.055 385.812 286.055V286H0V192H386V192.167C492 192.065 578.225 105.888 578.225 0H672.248H766.185H860.208C860.208 105.743 946.199 191.83 1052 192.166V192H1440V286H1052.62V286.055C980.821 286.055 915.032 259.484 864.717 215.681L861.711 217.404C873.778 311.325 953.935 384.301 1051 385.105V385H1440V479H1052.62H1051V478.995C912.349 478.224 796.659 378.486 771.377 247.032H766.256V479Z" fill="url(#paint0_linear_714_2)"/>
<defs>
<linearGradient id="paint0_linear_714_2" x1="719.5" y1="0" x2="719.5" y2="646.5" gradientUnits="userSpaceOnUse">
<stop stop-color="#1D1D20" stop-opacity="0"/>
<stop offset="1" stop-color="#1D1D20"/>
</linearGradient>
</defs>
</svg>
